if (_typeface_js && _typeface_js.loadFace) _typeface_js.loadFace({"glyphs":{"S":{"x_min":92.734375,"x_max":630,"ha":711,"o":"m 630 247 q 614 339 630 298 q 568 414 599 380 q 491 475 538 447 q 380 530 444 503 q 284 576 323 554 q 221 623 245 598 q 187 676 198 647 q 176 741 176 704 q 189 807 176 776 q 227 861 202 839 q 287 896 252 883 q 366 910 323 910 q 476 894 428 910 q 566 855 524 879 l 576 922 q 487 956 540 943 q 369 970 435 970 q 267 953 315 970 q 183 906 219 936 q 128 833 148 875 q 108 739 108 790 q 121 651 108 689 q 164 580 134 612 q 242 520 194 548 q 359 462 289 492 q 452 416 413 439 q 515 366 491 393 q 549 310 538 340 q 561 243 561 280 q 543 162 561 198 q 497 101 526 126 q 427 62 467 76 q 341 49 387 49 q 204 69 266 49 q 102 114 142 89 l 92 46 q 193 5 132 22 q 337 -11 253 -11 q 449 6 396 -11 q 542 57 502 23 q 606 138 582 90 q 630 247 630 186 "},"/":{"x_min":13.890625,"x_max":543.0625,"ha":560,"o":"m 543 741 l 486 754 l 13 -54 l 70 -65 l 543 741 "},"K":{"x_min":139,"x_max":806,"ha":838,"o":"m 806 6 l 283 512 l 778 958 l 689 958 l 206 516 l 206 958 l 139 958 l 139 0 l 206 0 l 206 501 l 731 -9 l 806 6 "},"7":{"x_min":39.171875,"x_max":585,"ha":642,"o":"m 585 656 l 585 702 l 39 702 l 48 643 l 519 643 l 144 -243 l 205 -259 l 585 656 "},"d":{"x_min":121,"x_max":672.28125,"ha":749,"o":"m 672 352 q 647 495 672 431 q 577 606 623 560 q 462 677 530 652 q 307 702 394 702 l 121 702 l 121 0 l 305 0 q 457 24 389 0 q 573 95 525 49 q 646 206 620 140 q 672 352 672 271 m 607 352 q 586 223 607 278 q 526 132 565 168 q 432 77 487 96 q 309 59 377 59 l 186 59 l 186 643 l 309 643 q 430 624 376 643 q 524 568 484 606 q 585 477 563 531 q 607 352 607 422 "},",":{"x_min":51.390625,"x_max":209.71875,"ha":294,"o":"m 209 113 l 125 113 l 51 -175 l 86 -184 l 209 113 "},"Y":{"x_min":56.71875,"x_max":805.671875,"ha":863,"o":"m 805 958 l 733 958 l 431 466 l 123 967 l 56 953 l 397 410 l 397 0 l 464 0 l 464 412 l 805 958 "},"E":{"x_min":139,"x_max":637.9375,"ha":702,"o":"m 637 0 l 637 60 l 206 60 l 206 472 l 550 472 l 542 532 l 206 532 l 206 899 l 624 899 l 624 959 l 139 959 l 139 0 l 637 0 "},"y":{"x_min":41.390625,"x_max":605.28125,"ha":647,"o":"m 605 702 l 533 702 l 323 350 l 105 710 l 41 696 l 290 293 l 290 1 l 355 1 l 355 293 l 605 702 "},"\"":{"x_min":104.171875,"x_max":408.328125,"ha":513,"o":"m 408 958 l 320 958 l 347 709 l 381 702 l 408 958 m 190 958 l 104 958 l 129 709 l 165 702 l 190 958 "},"‹":{"x_min":61.109375,"x_max":344.4375,"ha":429,"o":"m 344 702 l 294 702 l 61 351 l 297 -6 l 341 6 l 143 351 l 344 702 "},"„":{"x_min":93.0625,"x_max":419.4375,"ha":513,"o":"m 419 113 l 336 113 l 309 -162 l 345 -170 l 419 113 m 201 113 l 118 113 l 93 -162 l 127 -170 l 201 113 "},"g":{"x_min":76,"x_max":633,"ha":725,"o":"m 633 63 l 633 366 l 387 366 l 398 307 l 567 307 l 567 92 q 493 58 531 69 q 405 46 455 46 q 210 129 278 46 q 141 351 141 212 q 160 474 141 418 q 214 571 180 531 q 294 633 248 611 q 396 656 341 656 q 501 639 449 656 q 592 590 552 622 l 603 657 q 510 699 563 685 q 402 714 457 714 q 269 687 330 714 q 166 612 209 660 q 99 497 123 564 q 76 350 76 431 q 98 203 76 269 q 164 88 121 136 q 266 14 206 40 q 402 -12 327 -12 q 526 9 470 -12 q 633 63 583 31 "},"–":{"x_min":86,"x_max":549,"ha":635,"o":"m 549 360 l 549 425 l 86 425 l 86 360 l 549 360 "},"ƒ":{"x_min":70.328125,"x_max":447,"ha":486,"o":"m 174 393 l 78 393 l 70 336 l 166 336 l 73 -251 l 138 -237 l 230 336 l 387 336 l 387 393 l 238 393 l 260 533 q 298 624 271 595 q 385 654 324 654 q 447 647 414 654 l 447 708 q 419 711 435 709 q 388 714 403 714 q 259 672 305 714 q 198 538 213 630 l 174 393 "},"e":{"x_min":121,"x_max":537.671875,"ha":609,"o":"m 537 0 l 537 59 l 186 59 l 186 338 l 476 338 l 464 396 l 186 396 l 186 643 l 526 643 l 526 702 l 121 702 l 121 0 l 537 0 "},"J":{"x_min":42.84375,"x_max":364,"ha":499,"o":"m 364 230 l 364 959 l 297 959 l 297 224 q 254 95 297 138 q 137 52 212 52 q 88 55 113 52 q 42 65 63 58 l 52 1 q 90 -5 69 -2 q 135 -8 112 -8 q 300 51 236 -8 q 364 230 364 110 "},"|":{"x_min":157,"x_max":215,"ha":372,"o":"m 215 -255 l 215 1004 l 157 994 l 157 -265 l 215 -255 "},"^":{"x_min":137.5,"x_max":491.671875,"ha":635,"o":"m 491 819 l 348 1022 l 288 1022 l 137 815 l 181 815 l 316 941 l 455 812 l 491 819 "},"q":{"x_min":76,"x_max":708,"ha":784,"o":"m 708 355 q 684 504 708 437 q 619 617 660 571 q 519 689 577 664 q 391 714 460 714 q 264 687 321 714 q 164 612 206 660 q 99 497 123 564 q 76 350 76 430 q 135 123 76 209 q 291 0 194 37 l 671 -148 l 685 -86 l 468 -5 q 643 118 579 24 q 708 355 708 212 m 641 351 q 623 225 641 282 q 573 127 606 168 q 494 65 541 87 q 391 43 448 43 q 288 65 334 43 q 209 127 242 87 q 159 225 177 168 q 141 351 141 282 q 159 475 141 419 q 209 571 177 530 q 288 633 242 611 q 391 656 334 656 q 494 633 448 656 q 573 571 541 611 q 623 475 606 530 q 641 351 641 419 "},"b":{"x_min":121,"x_max":581,"ha":653,"o":"m 581 200 q 539 314 581 271 q 424 372 498 357 q 516 433 482 393 q 550 531 550 472 q 493 653 550 604 q 320 702 437 702 l 121 702 l 121 0 l 319 0 q 512 50 443 0 q 581 200 581 101 m 487 526 q 442 431 487 468 q 315 395 398 395 l 186 395 l 186 646 l 319 646 q 446 613 406 646 q 487 526 487 580 m 517 202 q 468 95 517 133 q 326 57 419 57 l 186 57 l 186 342 l 323 342 q 464 306 411 342 q 517 202 517 271 "},"D":{"x_min":139,"x_max":880,"ha":970,"o":"m 880 480 q 846 677 880 589 q 748 828 812 765 q 592 924 684 890 q 386 959 501 959 l 139 959 l 139 0 l 381 0 q 583 32 491 0 q 740 127 674 65 q 843 278 806 189 q 880 480 880 368 m 811 479 q 780 296 811 375 q 694 165 749 218 q 561 86 638 112 q 389 60 483 60 l 206 60 l 206 899 l 385 899 q 559 871 480 899 q 693 791 637 844 q 780 659 749 737 q 811 479 811 580 "},"z":{"x_min":64,"x_max":568,"ha":628,"o":"m 566 0 l 559 56 l 141 56 l 568 655 l 568 702 l 91 702 l 100 646 l 490 646 l 64 46 l 64 0 l 566 0 "},"w":{"x_min":54.171875,"x_max":1000,"ha":1054,"o":"m 1000 702 l 934 702 l 756 90 l 555 705 l 500 705 l 297 90 l 118 710 l 54 696 l 262 -4 l 323 -4 l 526 597 l 729 -4 l 790 -4 l 1000 702 "},"$":{"x_min":47.28125,"x_max":560,"ha":634,"o":"m 396 717 l 408 799 l 354 811 l 340 723 l 318 723 q 224 710 268 723 q 149 673 180 697 q 100 614 118 649 q 82 536 82 579 q 95 469 82 497 q 134 420 108 440 q 198 383 159 399 q 286 353 236 367 l 241 59 q 146 83 193 66 q 59 124 100 100 l 47 63 q 131 26 83 43 q 233 3 180 10 l 211 -142 l 266 -156 l 290 -1 q 399 11 350 -1 q 484 49 448 24 q 539 111 519 74 q 560 199 560 149 q 511 322 560 276 q 349 399 462 367 q 353 426 349 399 q 362 492 357 454 q 374 569 368 529 q 383 633 379 608 q 388 661 388 658 q 457 643 423 654 q 529 617 491 632 l 543 678 q 470 703 505 693 q 396 717 435 713 m 298 55 l 340 339 q 463 285 426 315 q 500 195 500 254 q 483 129 500 156 q 438 86 466 103 q 374 62 411 70 q 298 55 337 55 m 332 667 l 294 414 q 183 460 223 435 q 143 540 143 485 q 189 633 143 600 q 311 667 236 667 l 332 667 "},"™":{"x_min":55.890625,"x_max":989,"ha":1114,"o":"m 989 479 l 989 958 l 911 958 l 750 535 l 589 958 l 510 958 l 510 479 l 556 479 l 556 874 l 726 478 l 769 478 l 942 876 l 942 479 l 989 479 m 408 911 l 401 958 l 55 958 l 55 911 l 207 911 l 207 479 l 258 479 l 258 911 l 408 911 "},"\\":{"x_min":16.671875,"x_max":545.828125,"ha":560,"o":"m 16 741 l 488 -65 l 545 -54 l 73 754 l 16 741 "},"’":{"x_min":75,"x_max":213.890625,"ha":294,"o":"m 213 958 l 129 958 l 75 669 l 111 660 l 213 958 "},"~":{"x_min":84.71875,"x_max":480.5625,"ha":567,"o":"m 480 449 l 434 459 q 379 384 413 384 q 344 392 362 384 q 293 419 326 401 q 235 449 255 439 q 184 459 215 459 q 122 424 148 459 q 84 325 95 389 l 131 315 q 186 392 150 392 q 221 382 204 392 q 272 354 238 372 q 330 326 309 335 q 380 317 351 317 q 443 351 416 317 q 480 449 469 386 "},"-":{"x_min":93,"x_max":426,"ha":518,"o":"m 426 357 l 426 426 l 93 426 l 93 357 l 426 357 "},"Q":{"x_min":90,"x_max":943,"ha":1037,"o":"m 943 480 q 911 681 943 589 q 822 838 879 772 q 688 940 766 903 q 517 977 609 977 q 347 940 426 977 q 211 837 269 903 q 121 679 153 771 q 90 478 90 587 q 112 300 90 378 q 175 164 134 222 q 274 64 216 105 q 401 -5 331 22 l 894 -202 l 905 -134 l 583 -9 q 730 43 663 2 q 844 148 797 84 q 917 297 891 212 q 943 480 943 382 m 874 476 q 848 298 874 379 q 775 160 822 218 q 663 70 729 102 q 517 39 597 39 q 372 70 438 39 q 259 161 306 102 q 185 300 211 219 q 159 479 159 380 q 184 657 159 576 q 257 796 210 739 q 369 885 303 853 q 515 917 435 917 q 660 885 594 917 q 773 794 726 853 q 847 655 821 736 q 874 476 874 573 "},"M":{"x_min":158,"x_max":1111,"ha":1268,"o":"m 1111 0 l 1111 958 l 991 958 l 634 81 l 278 958 l 158 958 l 158 0 l 215 0 l 215 862 l 605 -6 l 660 -6 l 1050 862 l 1050 0 l 1111 0 "},"C":{"x_min":90,"x_max":811.78125,"ha":902,"o":"m 811 80 l 802 144 q 673 70 743 98 q 524 42 603 42 q 373 74 440 42 q 258 165 306 107 q 184 304 210 223 q 159 480 159 385 q 184 656 159 576 q 258 794 210 736 q 374 885 306 853 q 528 917 443 917 q 661 892 599 917 q 784 823 724 867 l 796 893 q 675 954 742 931 q 530 977 607 977 q 351 940 432 977 q 212 837 270 903 q 121 679 153 771 q 90 478 90 587 q 121 275 90 366 q 210 119 153 184 q 346 18 267 54 q 518 -18 424 -18 q 682 10 607 -18 q 811 80 757 39 "},"[":{"x_min":122,"x_max":370.265625,"ha":424,"o":"m 370 -105 l 363 -59 l 180 -59 l 180 656 l 366 656 l 366 702 l 122 702 l 122 -105 l 370 -105 "},"L":{"x_min":139,"x_max":604.609375,"ha":646,"o":"m 604 0 l 594 60 l 206 60 l 206 958 l 139 958 l 139 0 l 604 0 "},"!":{"x_min":142,"x_max":225,"ha":367,"o":"m 213 958 l 155 958 l 155 249 l 213 257 l 213 958 m 225 0 l 225 113 l 142 113 l 142 0 l 225 0 "}," ":{"x_min":0,"x_max":0,"ha":319},"{":{"x_min":42.625,"x_max":409.15625,"ha":462,"o":"m 409 -106 l 400 -57 l 316 -57 q 251 -34 271 -57 q 232 23 232 -12 q 239 96 232 55 q 247 169 247 137 q 217 259 247 231 q 144 297 188 286 l 144 298 q 217 336 188 309 q 247 426 247 364 q 239 500 247 459 q 232 572 232 540 q 252 630 232 608 q 317 653 273 653 l 405 653 l 405 702 l 317 702 q 207 667 242 702 q 172 571 172 633 q 179 498 172 534 q 187 426 187 462 q 156 343 187 365 q 78 321 125 321 l 42 321 l 50 275 l 78 275 q 156 252 125 275 q 187 170 187 229 q 179 97 187 134 q 172 24 172 59 q 207 -71 172 -37 q 317 -106 242 -106 l 409 -106 "},"X":{"x_min":62.5,"x_max":815.28125,"ha":882,"o":"m 440 454 l 752 -6 l 815 6 l 476 499 l 787 958 l 715 958 l 440 548 l 155 963 l 93 949 l 402 501 l 62 0 l 134 0 l 440 454 "},"P":{"x_min":139,"x_max":667,"ha":736,"o":"m 667 694 q 583 890 667 821 q 361 959 500 959 l 139 959 l 139 0 l 206 0 l 206 417 l 339 417 q 469 435 408 417 q 573 487 529 453 q 642 574 617 522 q 667 694 667 626 m 598 692 q 529 530 598 583 q 342 477 461 477 l 206 477 l 206 899 l 356 899 q 536 846 474 899 q 598 692 598 794 "},"%":{"x_min":54,"x_max":890,"ha":943,"o":"m 396 535 q 347 661 396 614 q 225 709 298 709 q 102 661 151 709 q 54 535 54 614 q 102 411 54 458 q 225 364 151 364 q 347 411 298 364 q 396 535 396 458 m 713 693 l 664 706 l 229 2 l 279 -9 l 713 693 m 890 158 q 841 285 890 237 q 717 333 792 333 q 595 285 644 333 q 547 158 547 237 q 595 35 547 81 q 717 -11 644 -11 q 841 35 792 -11 q 890 158 890 81 m 343 537 q 312 444 343 482 q 227 407 281 407 q 139 443 172 407 q 107 535 107 479 q 138 628 107 590 q 225 666 169 666 q 311 629 279 666 q 343 537 343 592 m 836 161 q 806 68 836 105 q 720 32 776 32 q 634 68 666 32 q 603 158 603 104 q 632 251 603 213 q 715 290 661 290 q 803 253 770 290 q 836 161 836 216 "},"#":{"x_min":44,"x_max":693,"ha":737,"o":"m 231 186 l 442 186 l 406 2 l 463 2 l 499 186 l 665 186 l 655 239 l 509 239 l 554 465 l 693 465 l 693 518 l 563 518 l 599 695 l 544 708 l 506 518 l 295 518 l 330 699 l 273 699 l 237 518 l 70 518 l 82 465 l 227 465 l 184 239 l 44 239 l 44 186 l 174 186 l 141 10 l 194 -7 l 231 186 m 452 239 l 241 239 l 284 465 l 495 465 l 452 239 "},"_":{"x_min":4,"x_max":657,"ha":661,"o":"m 657 -147 l 657 -90 l 4 -90 l 4 -147 l 657 -147 "},"+":{"x_min":83,"x_max":705,"ha":788,"o":"m 705 323 l 705 377 l 423 377 l 423 662 l 366 662 l 366 377 l 83 377 l 83 323 l 366 323 l 366 38 l 423 38 l 423 323 l 705 323 "},"":{"x_min":69,"x_max":894,"ha":963,"o":"m 894 -278 l 894 1001 l 754 1001 l 713 1111 l 249 1111 l 208 1002 l 69 1002 l 69 232 q 101 218 88 232 q 113 187 113 205 q 101 155 113 168 q 69 143 88 143 l 69 -278 l 356 -278 l 367 -259 l 593 -259 l 604 -278 l 894 -278 m 555 782 l 635 782 l 635 763 l 576 763 l 576 671 l 628 671 l 628 651 l 576 651 l 576 542 l 555 542 l 555 782 m 255 782 l 276 782 l 276 672 l 341 672 l 341 782 l 362 782 l 362 543 l 341 543 l 341 653 l 276 653 l 276 543 l 255 543 l 255 782 m 638 547 l 638 569 q 652 563 644 566 q 666 561 660 561 q 689 591 689 561 l 689 782 l 711 782 l 711 591 q 667 542 711 542 q 651 543 660 542 q 638 547 642 544 m 726 448 l 737 448 l 737 415 l 766 448 l 780 448 l 755 420 l 781 385 l 769 385 l 747 412 l 737 402 l 737 385 l 726 385 l 726 448 m 677 405 l 660 405 l 660 385 l 650 385 l 650 449 l 678 449 q 695 442 689 449 q 701 429 701 436 q 687 407 701 412 l 703 385 l 691 385 l 677 405 m 591 383 q 568 392 576 383 q 559 416 559 402 q 568 439 559 429 q 591 450 576 450 q 615 439 606 450 q 625 416 625 429 q 615 392 625 402 q 591 383 606 383 m 513 417 l 531 449 l 544 449 l 519 407 l 519 385 l 508 385 l 508 407 l 482 449 l 495 449 l 513 417 m 268 449 l 313 449 l 313 439 l 279 439 l 279 422 l 309 422 l 309 412 l 279 412 l 279 394 l 313 394 l 313 385 l 268 385 l 268 449 m 183 449 l 193 449 l 227 403 l 227 449 l 239 449 l 239 385 l 229 385 l 194 428 l 194 385 l 183 385 l 183 449 m 334 449 l 345 449 l 359 400 l 360 400 l 375 449 l 386 449 l 400 400 l 402 400 l 416 449 l 427 449 l 407 383 l 396 383 l 381 430 l 380 430 l 366 383 l 355 383 l 334 449 m 453 665 q 474 709 474 687 q 469 728 474 720 q 456 735 464 735 q 442 728 448 735 q 437 709 437 720 q 441 688 437 698 q 453 665 446 679 m 474 587 l 446 641 q 426 595 426 620 q 432 569 426 580 q 449 558 438 558 q 464 567 456 558 q 474 587 471 576 m 677 415 q 690 427 690 415 q 676 439 690 439 l 661 439 l 661 415 l 677 415 m 590 393 q 606 399 600 393 q 613 416 613 406 q 606 432 613 424 q 590 440 600 440 q 575 432 581 440 q 570 416 570 424 q 575 399 570 406 q 590 393 581 393 m 484 608 q 490 628 487 617 q 496 649 494 639 l 515 645 q 507 617 512 630 q 496 591 502 603 l 519 550 l 503 538 l 487 572 l 485 572 q 471 549 480 559 q 448 538 461 538 q 416 553 428 538 q 405 592 405 569 q 437 655 405 630 q 423 682 428 671 q 417 709 417 694 q 427 738 417 725 q 456 752 438 752 q 484 738 475 752 q 494 709 494 725 q 484 678 494 693 q 461 651 475 664 l 484 608 "},"‚":{"x_min":93.0625,"x_max":201.390625,"ha":294,"o":"m 201 113 l 118 113 l 93 -162 l 127 -170 l 201 113 "},")":{"x_min":48.28125,"x_max":321,"ha":414,"o":"m 321 313 q 267 533 321 437 q 108 722 213 629 l 48 707 q 209 516 160 609 q 258 325 258 423 q 209 116 258 206 q 58 -43 160 26 l 67 -100 q 256 81 191 -20 q 321 313 321 183 "},"'":{"x_min":104.171875,"x_max":190.28125,"ha":294,"o":"m 190 958 l 104 958 l 129 709 l 165 702 l 190 958 "},"}":{"x_min":53.84375,"x_max":418.375,"ha":461,"o":"m 418 275 l 410 321 l 382 321 q 305 344 335 321 q 276 426 276 368 q 282 500 276 462 q 288 571 288 537 q 254 668 288 635 q 145 702 220 702 l 53 702 l 62 653 l 145 653 q 209 632 189 653 q 230 573 230 611 q 223 500 230 541 q 216 426 216 459 q 244 336 216 364 q 317 298 273 309 l 317 297 q 244 259 273 287 q 216 169 216 231 q 223 96 216 137 q 230 23 230 55 q 209 -34 230 -12 q 143 -57 188 -57 l 58 -57 l 58 -106 l 145 -106 q 254 -71 220 -106 q 288 24 288 -37 q 282 97 288 61 q 276 170 276 134 q 305 252 276 230 q 380 275 335 275 l 418 275 "},"‰":{"x_min":85,"x_max":1041,"ha":1127,"o":"m 1041 479 q 1006 678 1041 587 q 910 835 972 769 q 758 939 847 902 q 561 976 670 976 q 365 939 453 976 q 214 835 276 902 q 119 678 153 769 q 85 479 85 587 q 119 279 85 370 q 216 122 153 188 q 367 18 279 55 q 564 -18 456 -18 q 761 18 672 -18 q 911 122 849 55 q 1007 279 974 188 q 1041 479 1041 370 m 1003 478 q 972 292 1003 377 q 885 145 941 206 q 748 49 829 84 q 565 15 666 15 q 382 49 464 15 q 243 145 300 84 q 155 292 186 206 q 124 478 124 377 q 154 665 124 580 q 241 812 185 751 q 378 908 297 873 q 561 943 460 943 q 744 908 662 943 q 882 812 825 873 q 971 665 940 751 q 1003 478 1003 580 m 603 454 q 693 507 657 470 q 729 607 729 544 q 681 719 729 678 q 555 760 634 760 l 411 760 l 411 213 l 467 213 l 467 448 l 544 448 l 719 209 l 780 220 l 603 454 m 554 707 q 641 680 611 707 q 671 605 671 654 q 637 526 671 554 q 544 499 603 499 l 467 499 l 467 707 l 554 707 "},"a":{"x_min":37.5,"x_max":669.453125,"ha":708,"o":"m 490 288 l 216 288 l 352 635 l 355 635 l 490 288 m 194 231 l 512 231 l 604 -6 l 669 6 l 387 710 l 319 710 l 37 0 l 104 0 l 194 231 "},"T":{"x_min":51,"x_max":744.515625,"ha":786,"o":"m 744 899 l 736 959 l 51 959 l 51 899 l 365 899 l 365 0 l 432 0 l 432 899 l 744 899 "},"—":{"x_min":86,"x_max":1185,"ha":1271,"o":"m 1185 360 l 1185 425 l 86 425 l 86 360 l 1185 360 "},"=":{"x_min":111,"x_max":743,"ha":854,"o":"m 743 470 l 743 530 l 111 530 l 111 470 l 743 470 m 743 169 l 743 229 l 111 229 l 111 169 l 743 169 "},"N":{"x_min":139,"x_max":843.28125,"ha":982,"o":"m 843 0 l 843 958 l 778 958 l 778 126 l 207 958 l 139 958 l 139 0 l 203 0 l 203 856 l 790 0 l 843 0 "},"2":{"x_min":60,"x_max":574.890625,"ha":640,"o":"m 574 0 l 569 56 l 143 56 l 381 251 q 454 314 422 284 q 511 375 487 344 q 547 441 534 406 q 561 516 561 476 q 499 656 561 602 q 332 711 437 711 q 195 686 259 711 q 78 628 130 662 l 90 570 q 208 631 148 607 q 330 655 268 655 q 393 645 363 655 q 444 619 422 636 q 479 575 466 602 q 493 512 493 548 q 453 399 493 448 q 345 293 413 349 l 60 54 l 60 0 l 574 0 "},"j":{"x_min":29.109375,"x_max":283.28125,"ha":400,"o":"m 283 178 l 283 702 l 218 702 l 218 183 q 186 82 218 113 q 99 52 155 52 q 62 54 77 52 q 29 60 47 56 l 38 0 q 67 -4 49 -2 q 106 -6 86 -6 q 233 37 183 -6 q 283 178 283 81 "},"Z":{"x_min":90,"x_max":761.9375,"ha":847,"o":"m 761 0 l 753 57 l 171 57 l 755 913 l 755 958 l 120 958 l 128 901 l 673 901 l 90 44 l 90 0 l 761 0 "},"u":{"x_min":111,"x_max":633.28125,"ha":744,"o":"m 633 267 l 633 702 l 568 702 l 568 266 q 517 107 568 166 q 369 48 466 48 q 223 109 272 48 q 174 271 174 171 l 174 702 l 111 702 l 111 261 q 128 150 111 200 q 179 65 145 100 q 260 9 212 29 q 369 -10 308 -10 q 563 64 493 -10 q 633 267 633 139 "},"1":{"x_min":32.375,"x_max":270,"ha":405,"o":"m 270 0 l 270 711 l 211 711 l 32 629 l 42 576 l 206 647 l 206 0 l 270 0 "},"›":{"x_min":84.71875,"x_max":368.0625,"ha":429,"o":"m 368 350 l 131 708 l 87 695 l 286 350 l 84 0 l 134 0 l 368 350 "},"k":{"x_min":121,"x_max":623.78125,"ha":653,"o":"m 623 8 l 259 375 l 608 702 l 518 702 l 186 380 l 186 702 l 121 702 l 121 0 l 186 0 l 186 364 l 551 -6 l 623 8 "},"<":{"x_min":87,"x_max":686,"ha":789,"o":"m 686 8 l 686 75 l 155 350 l 686 622 l 686 687 l 87 375 l 87 320 l 686 8 "},"t":{"x_min":28,"x_max":575.5625,"ha":602,"o":"m 575 643 l 567 702 l 28 702 l 28 643 l 270 643 l 270 0 l 335 0 l 335 643 l 575 643 "},"W":{"x_min":76.390625,"x_max":1359.71875,"ha":1435,"o":"m 1359 958 l 1293 958 l 1038 98 l 752 958 l 681 958 l 401 98 l 143 967 l 76 952 l 366 -3 l 426 -3 l 715 866 l 1008 -3 l 1069 -3 l 1359 958 "},"v":{"x_min":44.4375,"x_max":658.328125,"ha":701,"o":"m 658 702 l 590 702 l 352 75 l 111 710 l 44 696 l 322 -11 l 377 -11 l 658 702 "},">":{"x_min":103,"x_max":702,"ha":790,"o":"m 702 323 l 702 377 l 103 690 l 103 623 l 635 350 l 103 76 l 103 11 l 702 323 "},"s":{"x_min":50.21875,"x_max":509,"ha":576,"o":"m 509 192 q 498 256 509 228 q 463 309 488 285 q 396 355 437 333 q 296 397 355 377 q 221 427 251 413 q 173 455 191 440 q 148 488 155 470 q 142 531 142 506 q 182 617 142 582 q 291 652 223 652 q 391 637 343 652 q 467 606 439 622 l 479 671 q 401 699 450 686 q 294 712 353 712 q 210 698 250 712 q 141 660 171 685 q 95 601 112 635 q 78 525 78 567 q 89 461 78 489 q 123 412 100 434 q 186 372 147 390 q 280 333 225 353 q 358 301 326 317 q 409 270 390 286 q 437 233 429 253 q 446 186 446 213 q 400 92 446 132 q 271 52 355 52 q 212 56 243 52 q 153 70 182 61 q 100 88 125 78 q 59 106 76 97 l 50 40 q 91 23 66 32 q 144 7 115 14 q 205 -3 173 0 q 267 -8 236 -8 q 365 7 321 -8 q 442 48 410 22 q 491 112 474 75 q 509 192 509 149 "},"B":{"x_min":139,"x_max":681,"ha":763,"o":"m 681 272 q 628 428 681 371 q 485 508 575 485 q 594 592 551 536 q 638 726 638 647 q 565 895 638 832 q 353 959 493 959 l 139 959 l 139 0 l 353 0 q 485 18 425 0 q 588 70 544 36 q 656 156 632 105 q 681 272 681 207 m 570 724 q 556 649 570 685 q 515 587 542 614 q 447 546 488 561 q 351 531 406 531 l 206 531 l 206 899 l 350 899 q 514 853 458 899 q 570 724 570 807 m 613 265 q 544 114 613 169 q 358 60 475 60 l 206 60 l 206 474 l 353 474 q 458 462 411 474 q 540 424 506 450 q 594 359 575 398 q 613 265 613 319 "},"…":{"x_min":112,"x_max":815,"ha":926,"o":"m 815 0 l 815 113 l 730 113 l 730 0 l 815 0 m 504 0 l 504 113 l 421 113 l 421 0 l 504 0 m 195 0 l 195 113 l 112 113 l 112 0 l 195 0 "},"?":{"x_min":68,"x_max":589,"ha":670,"o":"m 589 749 q 569 844 589 801 q 514 915 550 886 q 431 961 479 945 q 326 977 383 977 q 183 951 250 977 q 68 887 116 925 l 77 823 q 195 892 133 868 q 323 917 256 917 q 468 871 415 917 q 521 746 521 825 q 510 678 521 710 q 475 617 500 647 q 406 556 449 587 q 295 490 362 525 l 279 478 l 279 247 l 339 257 l 339 450 q 446 512 401 482 q 523 578 491 543 q 572 655 555 614 q 589 749 589 696 m 351 0 l 351 113 l 268 113 l 268 0 l 351 0 "},"H":{"x_min":139,"x_max":843,"ha":982,"o":"m 843 0 l 843 958 l 776 958 l 776 532 l 206 532 l 206 958 l 139 958 l 139 0 l 206 0 l 206 472 l 776 472 l 776 0 l 843 0 "},"c":{"x_min":76,"x_max":605.171875,"ha":657,"o":"m 605 57 l 596 119 q 503 67 555 88 q 392 46 452 46 q 289 69 335 46 q 210 133 244 92 q 159 229 177 174 q 141 351 141 285 q 159 474 141 418 q 210 569 177 529 q 289 633 244 610 q 392 656 335 656 q 497 637 451 656 q 584 587 544 619 l 594 654 q 394 714 514 714 q 264 687 323 714 q 164 612 206 660 q 99 497 123 564 q 76 350 76 431 q 98 203 76 269 q 163 88 121 136 q 262 14 205 40 q 389 -12 320 -12 q 510 8 455 -12 q 605 57 566 28 "},"&":{"x_min":62,"x_max":691.609375,"ha":710,"o":"m 691 8 l 544 160 q 590 266 569 208 q 622 396 611 325 l 565 410 q 538 294 555 346 q 501 201 522 241 l 298 407 q 236 484 255 450 q 218 554 218 518 q 247 630 218 600 q 333 660 276 660 q 408 646 372 660 q 486 607 445 632 l 499 669 q 422 701 462 689 q 335 714 383 714 q 257 700 291 714 q 201 664 224 687 q 166 612 178 641 q 155 551 155 583 q 173 467 155 503 q 229 393 191 432 q 107 307 152 358 q 62 176 62 255 q 119 41 62 93 q 281 -11 177 -11 q 511 110 420 -11 l 626 -6 l 691 8 m 473 147 q 385 68 434 94 q 283 42 336 42 q 168 80 212 42 q 125 183 125 118 q 163 285 125 241 q 269 354 202 329 l 473 147 "},"I":{"x_min":150,"x_max":217,"ha":367,"o":"m 217 0 l 217 958 l 150 958 l 150 0 l 217 0 "},"•":{"x_min":141.671875,"x_max":429.171875,"ha":572,"o":"m 429 486 l 409 620 l 286 643 l 162 620 l 141 486 l 162 351 l 286 327 l 409 351 l 429 486 "},"G":{"x_min":90,"x_max":836,"ha":960,"o":"m 836 82 l 836 486 l 520 486 l 530 426 l 769 426 l 769 112 q 659 60 716 78 q 530 42 602 42 q 375 73 443 42 q 258 163 306 105 q 184 301 210 221 q 159 479 159 382 q 184 657 159 576 q 257 796 210 739 q 370 885 304 853 q 518 917 436 917 q 666 891 600 917 q 785 821 731 865 l 798 893 q 673 955 742 933 q 520 977 603 977 q 346 940 426 977 q 210 837 267 903 q 121 679 153 771 q 90 478 90 587 q 121 277 90 368 q 209 120 152 186 q 347 18 266 54 q 527 -18 427 -18 q 692 8 619 -18 q 836 82 765 34 "},"(":{"x_min":94,"x_max":366.734375,"ha":414,"o":"m 366 -81 q 205 108 254 15 q 157 300 157 201 q 205 508 157 418 q 357 668 254 598 l 347 725 q 158 543 223 645 q 94 311 94 441 q 147 91 94 187 q 307 -97 201 -4 l 366 -81 "},"`":{"x_min":187.5,"x_max":427.78125,"ha":635,"o":"m 427 815 l 283 1030 l 187 1009 l 379 815 l 427 815 "},"U":{"x_min":118,"x_max":818,"ha":936,"o":"m 818 360 l 818 958 l 751 958 l 751 356 q 732 229 751 286 q 677 131 713 172 q 588 68 641 90 q 468 46 535 46 q 345 69 398 46 q 257 134 293 93 q 203 234 221 176 q 185 363 185 293 l 185 958 l 118 958 l 118 353 q 141 206 118 273 q 209 89 165 138 q 318 13 254 40 q 465 -14 383 -14 q 613 13 548 -14 q 724 89 679 40 q 793 208 769 138 q 818 360 818 277 "},"◊":{"x_min":99.046875,"x_max":989,"ha":1114,"o":"m 989 479 l 989 958 l 911 958 l 750 535 l 589 958 l 510 958 l 510 479 l 556 479 l 556 875 l 726 478 l 769 478 l 942 876 l 942 479 l 989 479 m 228 472 q 286 481 259 472 q 336 506 314 490 q 370 548 357 523 q 383 605 383 573 q 351 690 383 659 q 256 749 320 721 q 176 793 200 773 q 153 847 153 813 q 177 900 153 879 q 242 921 201 921 q 297 913 271 921 q 350 890 324 905 l 359 937 q 306 957 335 949 q 243 965 277 965 q 146 930 186 965 q 106 844 106 896 q 113 798 106 817 q 137 763 121 778 q 178 733 153 748 q 239 703 203 719 q 311 660 288 683 q 334 602 334 638 q 302 538 334 560 q 231 516 271 516 q 161 526 190 516 q 104 553 132 536 l 99 503 q 156 481 124 491 q 228 472 188 472 "},"F":{"x_min":139,"x_max":604.609375,"ha":663,"o":"m 604 899 l 604 959 l 139 959 l 139 0 l 206 0 l 206 457 l 539 457 l 529 517 l 206 517 l 206 899 l 604 899 "},"r":{"x_min":121,"x_max":603.0625,"ha":656,"o":"m 603 7 l 383 304 q 512 374 465 323 q 560 504 560 425 q 495 647 560 593 q 305 702 430 702 l 121 702 l 121 0 l 186 0 l 186 298 l 311 298 l 533 -6 l 603 7 m 493 502 q 447 397 493 439 q 302 355 402 355 l 186 355 l 186 643 l 300 643 q 446 606 400 643 q 493 502 493 568 "},":":{"x_min":111,"x_max":194,"ha":305,"o":"m 194 542 l 194 653 l 111 653 l 111 542 l 194 542 m 194 0 l 194 113 l 111 113 l 111 0 l 194 0 "},"x":{"x_min":54.171875,"x_max":619.4375,"ha":675,"o":"m 619 9 l 372 367 l 598 702 l 525 702 l 337 416 l 143 708 l 76 695 l 302 367 l 54 1 l 126 1 l 336 317 l 551 -4 l 619 9 "},"*":{"x_min":76.71875,"x_max":493.671875,"ha":570,"o":"m 493 806 l 488 824 l 302 783 l 302 968 l 267 968 l 267 783 l 82 824 l 76 806 l 244 737 l 148 576 l 164 566 l 285 711 l 406 566 l 421 576 l 324 737 l 493 806 "},"†":{"x_min":78,"x_max":614,"ha":692,"o":"m 377 788 l 377 958 l 316 958 l 316 788 l 336 654 l 354 654 l 377 788 m 614 590 l 614 653 l 521 653 l 381 629 l 381 613 l 521 590 l 614 590 m 311 613 l 311 629 l 170 653 l 78 653 l 78 590 l 170 590 l 311 613 m 375 -21 l 375 464 l 354 590 l 336 590 l 317 464 l 317 -21 l 339 -163 l 351 -163 l 375 -21 "},"V":{"x_min":65.28125,"x_max":883.328125,"ha":949,"o":"m 883 958 l 813 958 l 473 74 l 130 967 l 65 952 l 441 -6 l 502 -6 l 883 958 "},"h":{"x_min":121,"x_max":646,"ha":767,"o":"m 646 0 l 646 702 l 580 702 l 580 396 l 186 396 l 186 702 l 121 702 l 121 0 l 186 0 l 186 337 l 580 337 l 580 0 l 646 0 "},"0":{"x_min":69,"x_max":683,"ha":752,"o":"m 683 352 q 662 490 683 424 q 603 606 642 556 q 507 685 564 656 q 376 715 449 715 q 245 685 302 715 q 148 605 188 655 q 89 489 109 555 q 69 350 69 423 q 88 213 69 278 q 146 97 107 147 q 242 17 185 47 q 373 -12 299 -12 q 505 17 448 -12 q 603 97 563 47 q 662 213 642 147 q 683 352 683 279 m 617 350 q 602 234 617 289 q 556 136 587 178 q 480 70 526 95 q 376 45 435 45 q 271 70 316 45 q 195 136 225 95 q 149 234 164 178 q 134 350 134 289 q 149 467 134 411 q 195 565 164 523 q 271 632 225 607 q 376 658 316 658 q 480 632 435 658 q 556 565 526 607 q 602 467 587 523 q 617 350 617 411 "},".":{"x_min":106,"x_max":189,"ha":295,"o":"m 189 0 l 189 113 l 106 113 l 106 0 l 189 0 "},"”":{"x_min":75,"x_max":433.328125,"ha":514,"o":"m 213 958 l 129 958 l 75 669 l 111 660 l 213 958 m 433 958 l 348 958 l 294 669 l 330 660 l 433 958 "},"@":{"x_min":83,"x_max":1086,"ha":1174,"o":"m 694 283 q 628 209 656 239 q 576 160 599 179 q 532 132 552 140 q 491 124 512 124 q 426 156 451 124 q 401 258 401 189 q 421 384 401 328 q 476 480 442 440 q 552 541 509 519 q 641 563 595 563 q 692 556 669 563 q 739 539 715 550 l 694 283 m 686 212 q 724 107 686 147 q 837 68 762 68 q 932 93 886 68 q 1011 166 977 118 q 1065 283 1045 213 q 1086 443 1086 353 q 1057 618 1086 540 q 974 751 1029 696 q 838 836 919 806 q 653 866 758 866 q 428 820 533 866 q 246 695 323 775 q 126 501 170 614 q 83 253 83 388 q 198 -78 83 36 q 524 -194 313 -194 q 695 -175 615 -194 q 833 -127 776 -156 l 827 -93 q 691 -142 768 -125 q 530 -159 613 -159 q 232 -54 341 -159 q 123 254 123 49 q 163 490 123 383 q 275 672 204 596 q 442 789 346 747 q 649 831 538 831 q 945 727 844 831 q 1047 441 1047 623 q 1030 298 1047 359 q 985 193 1013 236 q 922 128 958 150 q 847 107 886 107 q 768 136 790 107 q 746 207 746 166 q 752 279 746 244 l 802 575 q 730 603 770 590 q 647 616 690 616 q 531 589 587 616 q 433 515 476 563 q 365 401 391 467 q 340 256 340 335 q 380 118 340 167 q 478 70 420 70 q 580 108 533 70 q 686 212 627 146 "},"f":{"x_min":121,"x_max":512.671875,"ha":556,"o":"m 512 643 l 512 702 l 121 702 l 121 0 l 186 0 l 186 328 l 465 328 l 455 385 l 186 385 l 186 643 l 512 643 "},";":{"x_min":39.84375,"x_max":202,"ha":305,"o":"m 202 542 l 202 653 l 119 653 l 119 542 l 202 542 m 197 113 l 113 113 l 39 -175 l 74 -184 l 197 113 "},"“":{"x_min":80.5625,"x_max":438.890625,"ha":514,"o":"m 219 955 l 183 964 l 80 667 l 165 667 l 219 955 m 438 955 l 402 964 l 300 667 l 384 667 l 438 955 "},"i":{"x_min":126,"x_max":191.28125,"ha":318,"o":"m 191 0 l 191 702 l 126 702 l 126 0 l 191 0 "},"6":{"x_min":86,"x_max":684.28125,"ha":751,"o":"m 158 472 q 193 593 168 531 q 264 712 218 654 q 384 819 311 770 q 566 902 458 868 l 556 963 q 365 876 452 929 q 216 747 278 822 q 120 574 154 672 q 86 356 86 476 q 107 203 86 271 q 168 87 129 135 q 262 13 208 39 q 385 -12 317 -12 q 501 10 446 -12 q 596 72 555 32 q 660 167 637 111 q 684 290 684 222 q 664 406 684 354 q 608 494 644 457 q 524 550 573 531 q 418 570 476 570 q 282 540 350 570 q 158 472 214 511 m 150 408 q 276 483 207 450 q 411 516 345 516 q 502 497 463 516 q 567 449 541 479 q 606 377 594 418 q 619 288 619 335 q 600 184 619 229 q 551 107 582 139 q 476 58 519 75 q 387 42 434 42 q 214 126 279 42 q 149 361 149 211 q 149 383 149 372 q 150 408 149 396 "},"A":{"x_min":65.28125,"x_max":898.609375,"ha":964,"o":"m 898 5 l 518 964 l 445 964 l 65 0 l 134 0 l 261 328 l 700 328 l 831 -9 l 898 5 m 677 388 l 286 388 l 480 889 l 677 388 "},"‘":{"x_min":80.5625,"x_max":219.4375,"ha":294,"o":"m 219 955 l 183 964 l 80 667 l 165 667 l 219 955 "},"n":{"x_min":121,"x_max":646,"ha":767,"o":"m 646 0 l 646 702 l 585 702 l 585 116 l 190 702 l 121 702 l 121 0 l 182 0 l 182 604 l 589 0 l 646 0 "},"O":{"x_min":90,"x_max":943,"ha":1033,"o":"m 943 480 q 911 681 943 589 q 822 838 879 772 q 688 940 766 903 q 517 977 609 977 q 347 940 426 977 q 211 837 269 903 q 121 679 153 771 q 90 478 90 587 q 121 278 90 369 q 210 120 153 186 q 344 18 266 55 q 515 -18 423 -18 q 685 18 606 -18 q 821 121 763 55 q 911 279 879 187 q 943 480 943 371 m 874 478 q 848 302 874 382 q 775 164 822 222 q 662 73 727 105 q 517 42 597 42 q 372 73 438 42 q 259 164 306 105 q 185 303 211 222 q 159 480 159 383 q 184 656 159 576 q 257 794 210 736 q 370 885 305 853 q 515 917 435 917 q 660 885 594 917 q 773 794 726 853 q 847 655 821 736 q 874 478 874 575 "},"3":{"x_min":33.765625,"x_max":563.28125,"ha":642,"o":"m 563 43 q 547 126 563 89 q 502 191 531 164 q 433 234 472 218 q 346 254 393 250 q 422 293 386 269 q 486 350 459 318 q 529 422 513 383 q 545 507 545 461 q 526 595 545 557 q 475 659 507 633 q 401 700 443 686 q 310 714 359 714 q 164 687 228 714 q 50 622 100 661 l 62 565 q 179 634 119 608 q 310 660 239 660 q 374 650 343 660 q 428 622 404 641 q 466 573 452 603 q 480 503 480 543 q 413 352 480 415 q 228 265 347 289 l 181 255 l 181 201 l 203 204 q 238 208 218 208 q 299 208 258 208 q 444 162 390 208 q 498 40 498 115 q 474 -57 498 -13 q 408 -133 450 -101 q 308 -182 365 -165 q 182 -200 250 -200 q 103 -195 142 -200 q 33 -183 64 -190 l 44 -244 q 101 -253 68 -250 q 176 -257 133 -257 q 331 -234 260 -257 q 453 -172 402 -212 q 534 -77 504 -131 q 563 43 563 -22 "},"]":{"x_min":53.734375,"x_max":304,"ha":425,"o":"m 304 -105 l 304 702 l 53 702 l 62 656 l 244 656 l 244 -59 l 57 -59 l 57 -105 l 304 -105 "},"m":{"x_min":124,"x_max":850,"ha":975,"o":"m 850 1 l 850 702 l 740 702 l 488 87 l 234 702 l 124 702 l 124 1 l 182 1 l 182 607 l 457 -4 l 513 -4 l 789 607 l 789 1 l 850 1 "},"9":{"x_min":67,"x_max":666,"ha":752,"o":"m 593 229 q 558 108 583 170 q 487 -10 533 47 q 366 -117 440 -68 q 185 -200 293 -166 l 194 -261 q 385 -174 299 -227 q 535 -45 472 -120 q 631 127 597 29 q 666 345 666 225 q 644 498 666 430 q 583 614 622 566 q 488 688 543 662 q 365 714 433 714 q 250 691 304 714 q 155 629 196 669 q 90 534 114 590 q 67 411 67 479 q 86 295 67 347 q 141 207 105 244 q 225 151 176 170 q 333 132 275 132 q 469 161 401 132 q 593 229 537 190 m 601 293 q 475 218 544 251 q 340 186 405 186 q 248 204 287 186 q 183 252 210 222 q 144 325 157 283 q 132 413 132 366 q 150 517 132 472 q 200 594 168 562 q 273 643 232 626 q 364 660 315 660 q 537 575 472 660 q 603 340 603 490 q 603 316 603 329 q 601 293 603 305 "},"l":{"x_min":121,"x_max":466.84375,"ha":513,"o":"m 466 0 l 458 59 l 186 59 l 186 702 l 121 702 l 121 0 l 466 0 "},"8":{"x_min":69,"x_max":658,"ha":727,"o":"m 407 510 q 289 561 335 536 q 217 612 244 586 q 181 667 191 638 q 172 731 172 696 q 185 794 172 763 q 224 850 198 825 q 287 889 249 874 q 374 905 324 905 q 518 857 467 905 q 569 732 569 809 q 525 607 569 660 q 407 510 482 554 m 326 485 q 449 434 398 459 q 530 382 499 410 q 576 321 562 354 q 590 245 590 288 q 572 165 590 202 q 525 102 555 129 q 453 60 495 75 q 364 45 412 45 q 195 100 253 45 q 137 239 137 156 q 185 380 137 324 q 326 485 234 436 m 270 507 q 121 390 174 454 q 69 233 69 325 q 87 140 69 185 q 144 62 106 96 q 236 8 181 28 q 362 -12 291 -12 q 478 7 424 -12 q 571 60 531 26 q 635 143 612 94 q 658 250 658 192 q 613 387 658 331 q 463 489 569 443 q 529 535 498 510 q 583 591 560 560 q 619 657 606 621 q 633 732 633 692 q 565 897 633 834 q 377 961 498 961 q 271 942 320 961 q 185 893 221 924 q 128 819 149 862 q 108 727 108 777 q 146 598 108 650 q 270 507 185 545 "},"p":{"x_min":121,"x_max":556,"ha":605,"o":"m 556 489 q 536 581 556 542 q 481 648 517 621 q 397 688 446 675 q 290 702 348 702 l 121 702 l 121 0 l 186 0 l 186 275 l 290 275 q 397 289 348 275 q 481 330 446 303 q 536 397 517 357 q 556 489 556 436 m 490 489 q 436 372 490 410 q 293 334 382 334 l 186 334 l 186 643 l 293 643 q 436 606 382 643 q 490 489 490 568 "},"4":{"x_min":57,"x_max":735,"ha":788,"o":"m 735 25 l 735 78 l 575 78 l 575 711 l 492 711 l 57 66 l 57 25 l 515 25 l 515 -259 l 575 -241 l 575 25 l 735 25 m 515 78 l 133 78 l 515 644 l 515 78 "},"‡":{"x_min":90,"x_max":626,"ha":716,"o":"m 389 788 l 389 958 l 328 958 l 328 788 l 349 654 l 366 654 l 389 788 m 626 590 l 626 653 l 533 653 l 393 629 l 393 613 l 533 590 l 626 590 m 323 613 l 323 629 l 182 653 l 90 653 l 90 590 l 182 590 l 323 613 m 387 232 l 387 464 l 366 590 l 349 590 l 329 464 l 329 232 l 349 109 l 366 109 l 387 232 m 626 45 l 626 108 l 533 108 l 393 84 l 393 68 l 533 45 l 626 45 m 323 68 l 323 84 l 182 108 l 90 108 l 90 45 l 182 45 l 323 68 m 389 -260 l 389 -90 l 366 44 l 349 44 l 328 -90 l 328 -260 l 389 -260 "},"R":{"x_min":139,"x_max":744.78125,"ha":784,"o":"m 598 702 q 530 550 598 602 q 347 498 463 498 l 206 498 l 206 898 l 365 898 q 538 848 478 898 q 598 702 598 798 m 422 446 q 518 476 474 455 q 596 528 563 496 q 648 604 629 560 q 667 705 667 648 q 585 892 667 826 q 369 958 504 958 l 139 958 l 139 0 l 206 0 l 206 440 l 349 440 l 675 -10 l 744 4 q 721 37 744 4 q 661 119 697 70 q 583 226 625 168 q 506 332 542 284 q 446 414 470 381 q 422 446 422 446 "},"o":{"x_min":76,"x_max":708,"ha":784,"o":"m 708 351 q 684 499 708 432 q 619 613 660 565 q 519 687 577 661 q 391 714 460 714 q 264 687 321 714 q 164 612 206 660 q 99 497 123 564 q 76 350 76 431 q 98 203 76 269 q 163 88 121 136 q 262 14 205 40 q 389 -12 320 -12 q 517 15 459 -12 q 618 90 576 42 q 684 204 660 137 q 708 351 708 271 m 642 351 q 624 226 642 282 q 573 129 606 169 q 494 67 541 89 q 391 46 448 46 q 288 67 334 46 q 210 129 242 89 q 159 226 177 169 q 141 351 141 282 q 159 475 141 419 q 210 571 177 531 q 288 633 242 611 q 391 656 334 656 q 494 633 448 656 q 573 571 541 611 q 624 475 606 531 q 642 351 642 419 "},"5":{"x_min":52.5625,"x_max":596,"ha":660,"o":"m 596 88 q 575 192 596 147 q 518 267 554 238 q 438 312 483 297 q 344 327 392 327 q 239 316 281 327 q 155 286 196 306 l 155 643 l 562 643 l 551 702 l 97 702 l 97 240 l 150 225 q 240 257 198 246 q 337 268 283 268 q 411 257 376 268 q 472 223 445 246 q 513 165 498 200 q 528 82 528 129 q 500 -31 528 20 q 423 -119 473 -82 q 303 -176 373 -156 q 146 -196 233 -196 q 97 -194 119 -196 q 52 -189 76 -192 l 63 -250 q 103 -255 87 -255 q 147 -255 119 -255 q 320 -231 238 -255 q 463 -162 402 -207 q 560 -54 525 -117 q 596 88 596 8 "}}}
